<?xml version="1.0" encoding="utf-8"?>
<!-- Generator: Adobe Illustrator 23.0.0, SVG Export Plug-In . SVG Version: 6.00 Build 0)  -->
<svg version="1.1" id="レイヤー_1" xmlns="http://www.w3.org/2000/svg" xmlns:xlink="http://www.w3.org/1999/xlink" x="0px"
	 y="0px" viewBox="0 0 100 66" style="enable-background:new 0 0 100 66;" xml:space="preserve">
<style type="text/css">
	.st0{fill:none;}
	.st1{fill:#EC7048;}
	.st2{fill:#E50012;}
	.st3{fill:#FFFFFF;}
</style>
<rect y="0" class="st0" width="100" height="66"/>
<g>
	<path class="st1" d="M63.4,58.6C77.5,58.6,89,46.7,89,32.1C89,17.5,77.5,5.7,63.4,5.7c-14.1,0-25.6,11.8-25.6,26.4
		C37.8,46.7,49.3,58.6,63.4,58.6z"/>
	<g>
		<path class="st2" d="M74.4,46.9v-1.5c0-0.5-0.3-1-0.9-1.1l-7.8-1.4c-0.1,0-0.2,0-0.3,0L64.3,43c-0.2,0-0.3,0.1-0.5,0.2l-0.3-0.1
			c-0.1,0-0.2,0-0.3,0l-1.3,0.1c-0.1,0-0.1,0-0.2,0c-0.1,0-0.1,0-0.2,0L60,43.5c-0.3,0-0.6,0.2-0.8,0.5l-1.2-0.3c-0.1,0-0.2,0-0.3,0
			L56,43.9c-0.1,0-0.2,0-0.3,0.1c-0.1,0-0.2,0-0.3,0l-3.8,0.4c-0.3,0-0.5,0.1-0.6,0.3c-0.1,0-0.1-0.1-0.2-0.1c0,0,0,0,0,0
			c0,0-0.1,0-0.1,0c0,0-0.1,0-0.1,0c0,0,0,0,0,0c0,0-0.1,0-0.1,0c0,0-0.1,0-0.1,0c0,0,0,0,0,0c0,0-0.1,0-0.1,0l0,0
			c-0.1,0-0.2,0-0.3,0c0,0-0.1,0-0.1,0h0c0,0,0.1,0,0.1,0c-0.1,0-0.2,0-0.3,0l-2.9,0.3c-0.3,0-0.6,0.2-0.7,0.4l-0.7-0.2
			c-0.1,0-0.3,0-0.4,0l-1.7,0.2L42.9,45l-0.1,0.2l-0.7,0.1c-0.3,0-0.6,0.2-0.8,0.5l-0.8-0.3c-0.1,0-0.3-0.1-0.4,0l-2.6,0.3
			c-0.1,0-0.2,0-0.3,0h0c0,0-0.1,0-0.1,0c-0.1,0-0.1,0-0.2,0c0,0,0,0-0.1,0c-0.1,0-0.1,0-0.2,0.1c0,0-0.1,0-0.1,0h0l0,0c0,0,0,0,0,0
			c0,0,0,0-0.1,0c-0.1,0-0.1,0.1-0.2,0.1c0,0,0,0,0,0c0,0-0.1,0-0.1,0.1c-0.1,0-0.2,0.1-0.2,0.1c0,0,0,0,0,0c0,0,0,0,0,0
			c0,0,0,0,0,0c0,0,0,0,0,0c0,0-0.1,0-0.1,0.1c-0.1,0.1-0.1,0.1-0.2,0.2c0,0-0.1,0.1-0.1,0.1c0,0-0.1,0.1-0.1,0.1l-1.2-0.5
			c-0.2-0.1-0.3-0.1-0.5-0.1l0,0l-1.2-0.5l-0.7,0.7l-1.2,0.1c-0.5,0.1-0.9,0.4-1,1l-0.9,5.6c-0.4,0.2-0.7,0.6-0.7,1v1.7
			c0,0.4,0.2,0.7,0.5,0.9l5.1,3.6c0.2,0.1,0.5,0.2,0.8,0.2l2.5-0.5c0.4-0.1,0.7-0.3,0.8-0.7c0,0,0.2,0.1,0.4,0.2
			c0.2,0.1,0.3,0.2,0.6,0.1l2.4-0.4c0.3-0.1,0.6-0.3,0.8-0.5c0.6,0.3,1.1,0.2,1.8,0.1l3-0.5c0.1,0,0.2-0.1,0.3-0.1c0,0,0.3,0,0.4,0
			l2.1-0.4c0.2,0,0.5-0.2,0.7-0.5c0,0,0.4,0.3,0.9,0.2l2-0.4c0.1,0,0.2-0.1,0.3-0.1c0.1,0,0.3,0,0.3,0l3.2-0.6
			c0.5-0.1,1-0.3,1.3-0.5l0.2,0.1c0.2,0.1,0.4,0.1,0.5,0l4.1-0.8c0.1,0,0.2,0,0.3-0.1c0.1,0,0.2,0,0.3,0l1.7-0.3
			c0.4-0.1,0.7-0.4,0.9-0.8c0,0,1.1,0.3,1.1,0.3c0.1,0,0.3,0.1,0.5,0l1.6-0.3c0.2,0,0.4-0.2,0.6-0.3c0,0,0.4,0.1,0.7,0.1l1.9-0.4
			c0.3,0,0.9-0.3,0.9-1.1V51c0-0.4-0.2-0.7-0.3-0.8v-0.4l0.6-1.9C74,47.8,74.4,47.5,74.4,46.9z"/>
	</g>
	<g>
		<path class="st3" d="M35.8,49.9l3.5-0.4l1.1,6.8l0.5-0.1v1.8l-2.4,0.4l-0.3-2.1l-1.3,0.2l-0.3,2.2l-2.5,0.5v-1.9l0.6-0.1
			L35.8,49.9z M37.6,51.2L37.1,55l1-0.2L37.6,51.2z"/>
		<path class="st3" d="M46.4,48.7v2.7l-1.7,0.2v-1l-1.1,0.1v5l1.1-0.2v-1.4l1.7-0.3v3.1l-3,0.5c-0.3,0-0.6,0.1-0.9,0.1
			c-1-0.1-1-1.1-1-1.7v-4.6c0-0.5,0-1.1,0.3-1.6c0.4-0.6,1-0.7,1.6-0.8L46.4,48.7z"/>
		<path class="st3" d="M48.6,48.4l2.9-0.4l0.9,6.3l0.4-0.1V56l-2,0.4l-0.2-2l-1.1,0.2l-0.2,2L47.1,57v-1.8l0.5-0.1L48.6,48.4z
			 M50.1,49.6l-0.4,3.5l0.8-0.1L50.1,49.6z"/>
		<path class="st3" d="M53.5,47.8l3.2-0.4c0.3,0,0.7-0.1,0.9,0.1c0.5,0.3,0.6,1.1,0.6,1.8v3.6c0,0.5,0,0.9-0.1,1.3
			c-0.3,0.8-0.8,0.9-1.3,1l-3.2,0.6v-1.7l0.4-0.1v-4.7l-0.4,0.1V47.8z M56.5,49.1l-0.9,0.1v4.6l0.9-0.2V49.1z"/>
		<path class="st3" d="M58.7,47.2l4-0.5v2.4l-1.3,0.2v-0.9l-0.8,0.1V50l1.2-0.2v1.4l-1.2,0.2V53l0.8-0.1v-1l1.4-0.2v2.5l-4.1,0.7
			v-1.6l0.4-0.1v-4.5l-0.4,0V47.2z"/>
		<path class="st3" d="M65.1,46.4l1.1,2.5c0.1,0.3,0.1,0.3,0.2,0.6c0.1-0.3,0.1-0.4,0.2-0.7l1-2.8l1.6-0.2v1.5l-0.3,0v4.1l0.3-0.1
			V53l-1.6,0.3V50c0-0.3,0-0.3,0-0.5l-1.2,3.3l-1.3-3c0,0.2,0,0.3,0,0.5v3.5l-1.7,0.3v-1.6l0.4-0.1v-4.3l-0.4,0.1v-1.5L65.1,46.4z"
			/>
		<path class="st3" d="M69.7,45.9l1.3-0.2l0.5,1.8c0.1,0.2,0.1,0.3,0.1,0.5c0-0.3,0.1-0.4,0.1-0.7l0.5-1.8l1.2-0.1v1.5l-0.3,0
			l-0.8,2.7V51l0.3-0.1v1.4l-1.9,0.3v-1.5l0.3,0v-1.4L70,47.3l-0.3,0V45.9z"/>
	</g>
	<g>
		<path class="st2" d="M74.4,27.9v-3.4c0-0.6-0.4-1-0.9-1.1L72,10.8c-0.1-0.7-0.6-0.9-0.9-1l-5.3-1c-0.2,0-0.4,0-0.5,0l-2.7,0.8
			c0,0,0,0,0,0c-0.4-0.6-0.9-1.1-1.5-1.4c-0.6-0.3-1.4-0.5-1.9-0.6c-0.3-0.1-3.5-0.6-3.6-0.7C55.5,7,54.9,7,54.9,7
			c-0.5,0-1,0.1-1.3,0.2c-0.2,0.1-0.9,0.4-0.9,0.4s0-0.6-0.4-0.9c-0.1-0.1-0.3-0.2-0.5-0.2l-5-0.9c-0.2,0-0.5,0-0.7,0.1l-2.7,1.3
			l-0.7-1.6c-0.1-0.3-0.4-0.6-0.8-0.7l-6-1.1c-0.2,0-0.4,0-0.6,0.1c0,0-5.4,3.6-5.4,3.6c-0.3,0.2-0.5,0.6-0.5,1v4
			c0,0.6,0.4,1.1,1,1.1l0.2,0V22l-0.3,0.1c-0.5,0.1-0.8,0.6-0.8,1.1v4c0,0.6,0.5,1.1,1.1,1.1l5.3,0.2c0.1,0,0.1,0,0.2,0l3.4-0.4
			c0.2,0.3,0.5,0.5,0.9,0.6l4.8,0.1c0,0,0.1,0,0.1,0l2.1-0.2c0.2,0.1,0.7,0.2,1.3,0.3c1,0.1,2.8,0.1,3.7,0.1c0.7,0,1.8-0.1,2.7-0.2
			c0.2,0.2,0.4,0.3,0.7,0.3l3.7,0.1c0.2,0,2.2-0.1,2.2-0.1c0.2,0.1,0.4,0.2,0.6,0.2l3.4,0.1c0,0,0.1,0,0.1,0l7.8-0.4
			c0.2,0,0.5-0.1,0.7-0.3C74.3,28.5,74.4,28.3,74.4,27.9z"/>
	</g>
	<g>
		<path class="st3" d="M51.6,7.5v4.1l-1-0.2v11.5l1,0.1v4.1l-5.2-0.2l-3.6-8.2c-0.9-2.3-1.1-2.7-1.5-4.2c0.1,0.9,0.1,1.2,0.1,2
			l0.1,10.3l-5.9-0.2v-4.6L37,22V9.4l-1.3-0.2V4.6l6,1.1l4,9.7c0.6,1.4,0.7,1.8,1,3.1c-0.1-1.7-0.1-2.2-0.1-3.7V6.6L51.6,7.5z"/>
		<path class="st3" d="M58.8,8.8c1.3,0.2,2.6,0.5,3.2,2.1c0.4,1,0.4,2.2,0.4,3.7v7.5c0,1,0,2.1-0.2,3c-0.5,2.4-2.1,2.3-3.3,2.3
			l-2.6-0.1c-0.9,0-2.2-0.1-3-1c-1-1.1-1-2.5-1-3.8v-9.5c0-1.1,0-2.3,0.3-3.2c0.7-1.9,2.2-1.6,3.3-1.4L58.8,8.8z M58.6,12.6
			l-2.1-0.3v11l2.1,0.2V12.6z"/>
		<path class="st3" d="M65.7,10l5.3,1l1.6,13.4l0.8,0.1v3.4l-3.6-0.1l-0.4-4.2l-2.1-0.2l-0.4,4.2l-4-0.1v-3.8l1,0.1L65.7,10z
			 M68.4,13.3l-0.8,7.1l1.5,0.1L68.4,13.3z"/>
	</g>
	<g>
		<path class="st2" d="M74.5,39.5c0-0.1,0-0.3,0-0.3l0,0c0-0.1,0-0.2,0-0.2c0,0,0-0.2,0-0.2l0,0l0,0l0,0c0-0.1,0-0.3,0-0.3
			c0-0.1-0.1-0.3-0.1-0.3c-0.1-0.1-0.3-0.4-0.5-0.6c-0.2-0.1-0.4-0.2-0.6-0.2l0,0c0.1,0-0.2,0-0.2,0c0.3-1,0.5-1.9,0.5-2.9
			c0-2.1-0.9-5.1-3-5.4c-0.2,0-0.8,0-1,0L64.9,29c-0.1-0.1-0.2-0.1-0.3-0.2c-0.4-0.3-0.7-0.3-0.9-0.4l0,0c-0.1,0-0.1,0-0.3,0
			l-5.6,0.2c0,0-0.1,0-0.1-0.1c-0.5-0.4-0.9-0.5-1.2-0.5l0,0l0,0l0,0c0,0-7.1,0.3-7.2,0.4c-0.7,0.1-1.1,0.5-1.4,0.8l-3.1,0.1
			c0,0,0,0,0,0c0,0-0.3-0.1-0.5-0.1l-0.4,0c0,0-0.2-0.3-0.3-0.4c-0.3-0.4-0.8-0.9-1.6-1h0l0,0l0,0c-0.4,0-4.5,0.3-4.5,0.3
			c0-0.4-0.1-0.7-0.2-1.1c-0.3-1.5-0.9-3.4-1.6-4.8c-1.7-3.2-4.1-5-6.4-5.8c-1.8-0.6-3.6-0.7-5.5-0.5h0c-4.6,0.6-10.2,3.1-11.3,3.7
			c-0.1,0-0.2,0.1-0.3,0.1c-0.2,0.1-0.3,0.2-0.5,0.3c0,0-2.2,1.3-2.2,1.4c-0.6,0.3-1,0.9-1,1.6c0,0.8,0.5,1.3,0.8,1.5l0,0
			c-0.1,0.3-0.2,0.8,0,1.4c0.2,0.8,0.7,1.4,1,1.7c0,0,0.1,0.1,0.1,0.1c0.4,0.4,0.8,0.6,1.1,0.6c0.1,0,0.2,0,0.3,0l2.7-0.8
			c-0.1,0.8-0.1,1.8-0.1,2.6c0,0.1,0,0.2,0,0.3l-0.1,0.8L14,33.7c-0.1,0.7-0.3,5.1-0.3,5.1c-0.1,1.8-0.1,5.1-0.1,5.1
			c0,1.7,0.8,3.2,2.2,3.9l2.8,1.9c0.3,0.2,0.9,0.6,1.3,0.7c1.1,0.4,2.1,0.3,2.1,0.3c0.1,0,0.3-0.1,0.4-0.1c0.4-0.1,0.7-0.3,1-0.6
			c0.2-0.2,0.4-0.7,0.4-0.8c0,0,0.3,0.1,0.3,0.2c0.1,0,0.1,0.1,0.2,0.1c0.5,0.2,1.1,0.3,1.6,0.3c0.5,0,0.8-0.2,1-0.4
			c0,0,0.1,0,0.1-0.1c0.1,0,0.3,0.1,0.6,0.1l0,0c0.8-0.1,1.7-0.4,2.3-0.8c1-0.6,1.7-1.4,2.1-1.7c0.1-0.1,0.4-0.4,0.4-0.4
			c0.4,0.2,0.7,0.3,1.1,0.3l4.1,1.4c0,0,0.3,0.2,0.4,0.2c0.1,0.1,0.4,0.2,0.7,0.2c0.3,0.1,0.7,0.1,1,0.1l0,0h0
			c0.3,0,0.7-0.2,0.9-0.3c0.3-0.1,0.7-0.4,0.9-0.6c0.2-0.2,0.5-0.5,0.6-0.7l0,0c0.3-0.4,0.6-0.9,0.8-1.3l1.3,0.3c0,0,0.1,0,0.1,0.1
			c0,0,0.2,0.1,0.3,0.1c0,0,0.1,0,0.2,0.1c0,0,0.1,0,0.1,0c0,0,0.1,0,0.2,0c0,0,0.3,0,0.3,0c0.1,0,0.2,0,0.3,0l0,0l0,0
			c0.1,0,0.3,0,0.3,0c0.1,0,0.1,0,0.2-0.1l3.1,0.8c0,0,0.3,0.1,0.5,0.1l0.4,0.1c0.1,0,0.2,0.1,0.4,0.1c0.3,0.1,0.5,0.1,0.8,0.1
			c0.1,0,0.2,0,0.3,0c0.3,0,0.5-0.1,0.7-0.2c0.1,0,0.3-0.3,0.4-0.3c0.1-0.1,0.2-0.2,0.2-0.2l0,0c0.2-0.3,0.4-0.6,0.4-1
			c0,0,0-0.2,0-0.4l2.2,0.5c0.1,0,0.2,0.1,0.2,0.1c0.4,0.1,0.8,0.1,0.8,0.1l0,0c0.1,0,0.2,0,0.2,0c0.5,0,0.8-0.2,1.1-0.4
			c0,0,3.3,0.6,3.4,0.6c0.1,0.1,0.4,0.1,0.6,0.1c0,0,0.4,0,0.5,0l0,0l0,0c0.1,0,0.4,0,0.4-0.1c0.1,0,0.4-0.1,0.5-0.1l0,0l0,0
			c0,0,0.1,0,0.1,0c0.5-0.2,0.9-0.5,1.3-0.8c0,0,4.1,0.7,4.1,0.7c0.1,0,0.4,0.1,0.5,0.1c0.3,0,0.6,0,0.9-0.1
			c0.2-0.1,0.6-0.2,0.9-0.4c0.2-0.1,0.5-0.3,0.7-0.5c0.2-0.1,0.3-0.3,0.5-0.5c0.5-0.5,0.9-1.1,1-1.3c0.1-0.1,0.2-0.2,0.2-0.2
			c0.2-0.2,0.3-0.4,0.4-0.6C74,42.2,74.5,41.1,74.5,39.5z M24.8,28.5c0.1-1.9,0.2-2.6,0.3-2.8c0,0,0.1-0.1,0.1-0.1c0,0,0,0,0,0
			c0.1,0.1,0.4,1.1,0.4,1.1c0.1,0.3,0.3,1.3,0.3,1.7c0.1,0.7,0.2,2.3,0.2,2.3l0,0.5c0.1,1.5-1.6,5.9-1.6,5.9c0,0,0,0,0,0
			C24.6,35.7,24.8,28.6,24.8,28.5z"/>
	</g>
	<g>
		<path class="st3" d="M23.2,47.9c-0.3,0.7-0.4,1.8-1.2,1.8c-1.9,0.1-3.9-1.1-3.9-3.8c0-5.2,0.2-10.4,0.8-15.5
			c0-1.8,0.3-5.3,0.3-5.4c0.1-1-0.3-1.6-1-1.1c-1.6,0.9-3.2,1-3.7,2.8c-0.2,0-1.2-1-1.4-1.9C12.8,24,13,23.6,13,23
			c0-0.8-1-0.5-1-1.4c0-0.4,0.4-0.7,0.8-0.8c0,0,2.3-1.1,5.1-2.1c2.8-1,6.1-1.8,8.4-1.6c7,0.7,10.2,7.3,10.2,13.9
			c0,3.1-1,7.3-2.6,10.7c-1.6,3.5-3.9,6.4-6.5,6.6c-0.2,0-0.3-0.1-0.6-0.1c-0.4,0-0.7,0.4-1.1,0.5C24.8,48.9,24.1,48.1,23.2,47.9z
			 M23,22.3c0.6,0.6,1.6,1.2,1.6,1.7c0,1.7-0.8-0.7-1,4.5l-0.4,16.3c0,0.6,0.9,0.7,1.3,0.7c2.3-0.3,4.2-3.5,5.6-6.8
			c1.3-3.2,2-6.7,2-7.7c-0.1-3.2-0.6-9.4-4.2-9.6C26,21.3,24.6,21.7,23,22.3z"/>
		<path class="st3" d="M73.3,38.9c0,0,0-0.1,0-0.2c0-0.1,0-0.2-0.1-0.2c-0.1,0-1.7,3.7-3.2,3.8c-0.8,0.1-1.3-1.2-1.3-2.3
			c0-0.3,0.1-0.4,0.2-0.4c0.2,0,0.5,0.1,0.7,0.1c1.9-0.4,2.8-3.3,2.8-5.2c0-1.7-0.8-4.3-2.2-4.3c-2-0.1-1.8,0.8-2.8,0.8
			c-0.8,2.4-1,5.3-1.1,8c-0.3,0.2-1.7,3.4-3.1,3.5c-1.3,0.1-1.5-2.2-1.5-3.5c0-2.3,0.9-7,0.9-7c0.1-0.7,0.5-0.6,0.5,0
			c0,0-0.4,5,0.8,5c0.2,0,1.3-0.3,1.3-0.3c0.2,0,0.3-0.3,0.3-0.6c0.1-0.1-0.1-1.8-0.1-3c0-1,0.3-2.1-0.6-2.6c0,0-0.8-0.7-1.3-0.8
			c-0.4,0-2.7,0.7-2.7,0.7c-0.2,0.1-0.4,0.1-0.4,0.4c0,0-1.3,5.7-1.3,9.5c-0.3,0.6-0.6,1.3-1.3,1.3c-0.6,0-1-1-1-1.8
			c0-3.7,0.6-5.1,1.1-8.4c0.1-0.2,0.2-0.3,0.2-0.5c0-0.6-1.4-1.8-1.7-1.8c-0.7,0-1.1,0.9-1.7,1.3c-0.2,0.1-0.1,0.8-0.2,1
			c-0.3,2.8-1.9,7.5-2.8,10.4c0.1-1.4,0.7-8.3,1-9c0.1-0.2,0.2-0.5,0.2-0.7c0-0.3-0.5-1.7-1.1-1.7c-0.3,0-0.4,0.2-0.9,0.2
			c-0.3,0-0.5-0.3-0.7-0.3c0,0-0.9,0.5-0.8,1.3c0,0.2,0.2,0.4,0.2,0.5c0,0.6-0.2,1.5-0.2,2.5c0,1.4-0.1,2.9-0.1,4.4
			c-0.4,0.3-1.4,3.4-2.4,3.5c-0.7,0-0.9-0.9-0.9-2.1c0-2.4,0.9-4.9,0.9-7.1c0-0.3,0.3-0.5,0.3-0.8c0-0.6-0.4-1.4-1.5-1.4
			c-1.5,0-1-0.5-1.5-0.6c-0.1,0-0.4,0-0.6,0c-0.8,0-0.8-1.3-1.7-1.3c-4.8-0.1-5.6,9.2-5.6,13.4c0,2.1,0.8,5.4,3.2,5.2
			c1.7-0.2,2.8-3.1,3.5-4.6c0.6,1.6,1.6,2.4,2.4,2.3c0.8-0.1,2.9-1.7,3.6-3.5c0,0.8,0,1.7,0,2.5c0,0.7,0,1.8,0.8,1.8
			c0.6-0.1,0.2,0.3,1.7,0.3c0.3,0,0.7-0.6,0.7-1c0-0.2-0.1-0.3-0.1-0.5c0-2.4,1.4-5.1,1.8-6.4c0.1-0.2,0.2-1.4,0.5-1.4
			c0.1,0,0.1,0.3,0.1,0.5c-0.1,1.2-0.3,2.3-0.3,3.6c0,1.9,0.7,3.7,2.4,3.7c0.9,0,2.3-2.1,2.3-2.1c0.2-0.2,0.3-0.4,0.4-0.6
			c0.5,1.8,1.7,3.1,2.9,3.1c1.5-0.1,3.6-2.3,4.2-4.4c0,2.2,1.5,4.3,3.1,4.1c1.6-0.3,2.7-2.4,2.7-2.4c0.8-0.7,1.1-1.6,1.2-2.9
			C73.4,39.4,73.3,39.2,73.3,38.9z M69.9,31.4c0.4,0.1,0.6,1.1,0.6,2c0,1.1-0.3,4.8-1.2,4.9c-0.2,0-0.6-0.3-0.6-0.5
			C68.8,36.9,69.5,31.3,69.9,31.4z M40.9,44c-0.7,0.1-0.8-2.3-0.8-3.1c0-2.8,1.4-9.3,2.3-9.3c0,0,1,0.2,1,2.1
			C43.5,36.8,42.1,43.9,40.9,44z"/>
	</g>
</g>
</svg>
